Die Herbstzeitlosen (aufgenommen von SF1 am 01.01.2010 - ohne Werbung) mit:

Stephanie Glaser
Hanspeter Müller-Drossaart

 
http://www.shop.sf.tv/Produkte/Spielfilme/Schweizer-Film/Die-Herbstzeitlosen




General
Complete name                            : Die Herbstzeitlosen [SF1 01-01-2010].avi
Format                                   : AVI
Format/Info                              : Audio Video Interleave
File size                                : 613 MiB
Duration                                 : 1h 26mn
Overall bit rate                         : 995 Kbps

Video
ID                                       : 0
Format                                   : MPEG-4 Visual
Format profile                           : Advanced Simple@L5
Format settings, BVOP                    : 2
Format settings, QPel                    : No
Format settings, GMC                     : No warppoints
Format settings, Matrix                  : Default (H.263)
Codec ID                                 : XVID
Codec ID/Hint                            : XviD
Duration                                 : 1h 26mn
Bit rate                                 : 854 Kbps
Width                                    : 640 pixels
Height                                   : 480 pixels
Display aspect ratio                     : 4:3
Frame rate                               : 25.000 fps
Color space                              : YUV
Chroma subsampling                       : 4:2:0
Bit depth                                : 8 bits
Scan type                                : Progressive
Compression mode                         : Lossy
Bits/(Pixel*Frame)                       : 0.111
Stream size                              : 526 MiB (86%)
Writing library                          : XviD 63

Audio
ID                                       : 1
Format                                   : MPEG Audio
Format version                           : Version 1
Format profile                           : Layer 3
Codec ID                                 : 55
Codec ID/Hint                            : MP3
Duration                                 : 1h 26mn
Bit rate mode                            : Constant
Bit rate                                 : 128 Kbps
Channel(s)                               : 2 channels
Sampling rate                            : 48.0 KHz
Compression mode                         : Lossy
Stream size                              : 78.9 MiB (13%)
Alignment                                : Split accross interleaves
Interleave, duration                     : 24 ms (0.60 video frame)

